<?xml version="1.0" encoding="UTF-8" standalone="no"?>
<svg
   xmlns:dc="http://purl.org/dc/elements/1.1/"
   xmlns:cc="http://creativecommons.org/ns#"
   xmlns:rdf="http://www.w3.org/1999/02/22-rdf-syntax-ns#"
   xmlns:svg="http://www.w3.org/2000/svg"
   xmlns="http://www.w3.org/2000/svg"
   xmlns:sodipodi="http://sodipodi.sourceforge.net/DTD/sodipodi-0.dtd"
   xmlns:inkscape="http://www.inkscape.org/namespaces/inkscape"
   height="365.696pt"
   viewBox="0 0 365.696 365.696"
   width="365.696pt"
   version="1.1"
   id="svg4"
   sodipodi:docname="close.svg"
   inkscape:version="0.92.4 (5da689c313, 2019-01-14)">
  <metadata
     id="metadata10">
    <rdf:RDF>
      <cc:Work
         rdf:about="">
        <dc:format>image/svg+xml</dc:format>
        <dc:type
           rdf:resource="http://purl.org/dc/dcmitype/StillImage" />
        <dc:title></dc:title>
      </cc:Work>
    </rdf:RDF>
  </metadata>
  <defs
     id="defs8" />
  <sodipodi:namedview
     pagecolor="#ffffff"
     bordercolor="#666666"
     borderopacity="1"
     objecttolerance="10"
     gridtolerance="10"
     guidetolerance="10"
     inkscape:pageopacity="0"
     inkscape:pageshadow="2"
     inkscape:window-width="1532"
     inkscape:window-height="877"
     id="namedview6"
     showgrid="false"
     inkscape:zoom="0.48400856"
     inkscape:cx="252.06166"
     inkscape:cy="243.79734"
     inkscape:window-x="68"
     inkscape:window-y="0"
     inkscape:window-maximized="1"
     inkscape:current-layer="svg4" />
  <path
     d="m 217.05414,183.63013 74.30326,-74.30326 c 8.20973,-8.20973 8.20973,-21.519771 0,-29.716682 l -9.90556,-9.90556 c -8.2123,-8.212304 -21.52234,-8.212304 -29.71926,0 L 177.43189,144.00532 103.12864,69.689234 c -8.209741,-8.209737 -21.519781,-8.209737 -29.716689,0 l -9.920954,9.905558 c -8.209737,8.212307 -8.209737,21.522348 0,29.719258 l 74.316083,74.31608 -74.300688,74.30069 c -8.212304,8.21231 -8.212304,21.52234 0,29.71926 l 9.905559,9.90556 c 8.209738,8.20973 21.519778,8.20973 29.716689,0 l 74.30325,-74.30326 74.30069,74.30326 c 8.21231,8.20973 21.52234,8.20973 29.71926,0 l 9.90556,-9.90556 c 8.20973,-8.2123 8.20973,-21.52234 0,-29.71926 z m 0,0"
     id="path2"
     inkscape:connector-curvature="0"
     style="stroke-width:0.65677899" />
</svg>
