<?xml version="1.0" encoding="UTF-8" standalone="no"?>
<svg
   xmlns:dc="http://purl.org/dc/elements/1.1/"
   xmlns:cc="http://creativecommons.org/ns#"
   xmlns:rdf="http://www.w3.org/1999/02/22-rdf-syntax-ns#"
   xmlns:svg="http://www.w3.org/2000/svg"
   xmlns="http://www.w3.org/2000/svg"
   xmlns:sodipodi="http://sodipodi.sourceforge.net/DTD/sodipodi-0.dtd"
   xmlns:inkscape="http://www.inkscape.org/namespaces/inkscape"
   id="Capa_1"
   enable-background="new 0 0 512 512"
   height="512"
   viewBox="0 0 512 512"
   width="512"
   version="1.1"
   sodipodi:docname="pin1.svg"
   inkscape:version="0.92.4 (5da689c313, 2019-01-14)">
  <metadata
     id="metadata23">
    <rdf:RDF>
      <cc:Work
         rdf:about="">
        <dc:format>image/svg+xml</dc:format>
        <dc:type
           rdf:resource="http://purl.org/dc/dcmitype/StillImage" />
        <dc:title></dc:title>
      </cc:Work>
    </rdf:RDF>
  </metadata>
  <defs
     id="defs21" />
  <sodipodi:namedview
     pagecolor="#ffffff"
     bordercolor="#666666"
     borderopacity="1"
     objecttolerance="10"
     gridtolerance="10"
     guidetolerance="10"
     inkscape:pageopacity="0"
     inkscape:pageshadow="2"
     inkscape:window-width="1437"
     inkscape:window-height="767"
     id="namedview19"
     showgrid="false"
     inkscape:zoom="0.4609375"
     inkscape:cx="264.67797"
     inkscape:cy="256"
     inkscape:window-x="68"
     inkscape:window-y="0"
     inkscape:window-maximized="0"
     inkscape:current-layer="Capa_1" />
  <g
     id="g16"
     transform="matrix(0.70159404,-0.05953488,0.05953488,0.70159404,58.852787,78.177332)"
     inkscape:transform-center-x="-6.4624933"
     inkscape:transform-center-y="4.1835563">
    <path
       d="M 477.607,189.957 322.043,34.393 c -5.858,-5.858 -5.858,-15.355 0,-21.213 17.574,-17.574 46.066,-17.574 63.64,0 L 498.82,126.317 c 17.574,17.574 17.574,46.066 0,63.64 -5.858,5.858 -15.356,5.858 -21.213,0 z"
       id="path2"
       inkscape:connector-curvature="0" />
    <g
       id="g14">
      <g
         id="g6">
        <path
           d="m 43.504,418.998 c -20.491,20.491 -35.351,46.099 -42.975,74.055 -1.416,5.193 0.059,10.747 3.865,14.553 3.806,3.806 9.359,5.281 14.553,3.865 27.956,-7.624 53.564,-22.485 74.055,-42.976 L 210.371,351.126 160.873,301.628 Z"
           id="path4"
           inkscape:connector-curvature="0" />
      </g>
      <path
         d="m 198.318,129.305 c -27.83,5.046 -53.111,18.285 -73.111,38.285 l -17.367,17.367 c -5.858,5.858 -5.858,15.355 0,21.213 l 197.99,197.99 c 5.858,5.858 15.355,5.858 21.213,0 l 17.367,-17.367 c 20,-20 33.238,-45.281 38.285,-73.112 3.181,-17.541 2.951,-35.274 -0.578,-52.438 l -131.36,-131.36 c -17.164,-3.529 -34.898,-3.759 -52.439,-0.578 z"
         id="path8"
         inkscape:connector-curvature="0" />
      <g
         id="g12">
        <path
           d="m 329.167,78.869 h 57.929 v 150 h -57.929 z"
           transform="matrix(0.707,-0.707,0.707,0.707,-3.908,298.304)"
           id="path10"
           inkscape:connector-curvature="0" />
      </g>
    </g>
  </g>
</svg>
